<svg xmlns="http://www.w3.org/2000/svg" xmlns:xlink="http://www.w3.org/1999/xlink" fill="none" version="1.1" width="26" height="26" viewBox="0 0 26 26"><defs><clipPath id="master_svg0_2_4768"><rect x="0" y="0" width="26" height="26" rx="0"/></clipPath></defs><g clip-path="url(#master_svg0_2_4768)"><path d="M13,1.625C19.282249,1.625,24.375,6.7177496,24.375,13C24.375,19.282249,19.282249,24.375,13,24.375C6.7177496,24.375,1.625,19.282249,1.625,13C1.625,6.7177496,6.7177496,1.625,13,1.625ZM13,3.3515625C7.6713204,3.3515625,3.3515625,7.6713204,3.3515625,13C3.3515625,18.328678,7.6713204,22.648438,13,22.648438C18.328678,22.648438,22.648438,18.328678,22.648438,13C22.648438,7.6713204,18.328678,3.3515625,13,3.3515625Z" fill="#394066" fill-opacity="1" style="mix-blend-mode:passthrough"/><g><path d="M14.8172359,10.3171878C14.6250486,10.3171878,14.432861299999999,10.2437501,14.2875481,10.0968752L13.75,9.5606315L13.75,13.973388700000001C13.75,14.387451200000001,13.4140625,14.723388700000001,13,14.723388700000001C12.5859375,14.723388700000001,12.25,14.387451200000001,12.25,13.973388700000001L12.25,9.5625489L11.714111299999999,10.0984378C11.4203615,10.3921876,10.9469237,10.3921876,10.6531739,10.0984378C10.3594241,9.804688,10.3594241,9.3312502,10.6531739,9.037500399999999L12.4703612,7.2203126C12.764111,6.926562548,13.237548799999999,6.926562548,13.5312986,7.2203126L15.3484859,9.0374999C15.6422358,9.3312497,15.6422358,9.8046875,15.3484859,10.0984373C15.2000484,10.2453122,15.0078611,10.3171873,14.8172359,10.3171878ZM7,16.1843996C7,17.185962,7.8515625,18.001587,8.8984375,18.001587L17.101562,18.001587C18.148438,18.001587,19,17.185962,19,16.1843996L19,15.0015869C19,14.5875244,18.664062,14.2515869,18.25,14.2515869C17.835938,14.2515869,17.5,14.5875244,17.5,15.0015869L17.5,16.1843996C17.5,16.3562746,17.317187,16.5015869,17.101562,16.5015869L8.8984375,16.5015869C8.6828125,16.5015869,8.5,16.3562746,8.5,16.1843996L8.5,15.0015869C8.5,14.5875244,8.1640625,14.2515869,7.75,14.2515869C7.3359375,14.2515869,7,14.5875244,7,15.0015869L7,16.1843996Z" fill-rule="evenodd" fill="#394066" fill-opacity="1" style="mix-blend-mode:passthrough"/></g></g></svg>