<svg xmlns="http://www.w3.org/2000/svg" xmlns:xlink="http://www.w3.org/1999/xlink" fill="none" version="1.1" width="16" height="16" viewBox="0 0 16 16"><defs><clipPath id="master_svg0_2_4707"><rect x="0" y="0" width="16" height="16" rx="0"/></clipPath></defs><g clip-path="url(#master_svg0_2_4707)"><path d="M10.4732923765625,11.75336118359375C10.2340450765625,11.75303618359375,10.0135097765625,11.62390118359375,9.8961496765625,11.41541668359375C9.7787904765625,11.20693018359375,9.7827930765625,10.95140078359375,9.9066257765625,10.74669458359375C10.3999585765625,9.90669438359375,10.6666259765625,8.96002818359375,10.6666259765625,8.000028083593751C10.6666259765625,7.04002808359375,10.3999595765625,6.09336138359375,9.8999595765625,5.26002838359375C9.7132930765625,4.94669488359375,9.8132924765625,4.53336188359375,10.1266259765625,4.34669498359375C10.4412402765625,4.15583948359375,10.8510849765625,4.25755258359375,11.0399589765625,4.57336138359375C11.6666259765625,5.61336138359375,11.9999589765625,6.80002828359375,11.9999589765625,8.000028083593751C11.9999589765625,9.200027983593749,11.6666259765625,10.38669588359375,11.0466259765625,11.42669488359375C10.9199589765625,11.63336218359375,10.6999599765625,11.75336118359375,10.4732923765625,11.75336118359375ZM12.7599589765625,13.12002718359375C12.5207109765625,13.11970318359375,12.3001759765625,12.99057018359375,12.1828169765625,12.78208318359375C12.0654569765625,12.57359718359375,12.0694599765625,12.31806718359375,12.1932929765625,12.11336118359375C12.9466259765625,10.86669348359375,13.3399589765625,9.446693883593749,13.3399589765625,8.00002768359375C13.3399589765625,6.55336138359375,12.9466259765625,5.14002748359375,12.1932929765625,3.88669438359375C11.9956749765625,3.57320638359375,12.0935429765625,3.1585874835937497,12.4104839765625,2.96655818359375C12.7274269765625,2.77452898359375,13.1402449765625,2.8797318835937498,13.3266259765625,3.20002768359375C14.2066259765625,4.66002798359375,14.6666259765625,6.32002828359375,14.6666259765625,8.000028083593751C14.6666259765625,9.68002888359375,14.2066259765625,11.34002878359375,13.3266259765625,12.80002818359375C13.2066259765625,13.00669518359375,12.9866259765625,13.12002718359375,12.7599589765625,13.12002718359375ZM7.8066262765625,14.40002818359375C7.5866260765625,14.40002818359375,7.3666257765625,14.31336018359375,7.1999597765625,14.14669418359375L4.5599596765624995,11.50669478359375C4.451676176562501,11.39483258359375,4.3023078765625,11.33219528359375,4.1466262765625,11.33336068359375L2.6666259765625,11.33336068359375C1.5666259565625,11.33336068359375,0.6666259765625,10.43336108359375,0.6666259765625,9.33336118359375L0.6666259765625,6.66669418359375C0.6666259765625,5.566694283593749,1.5666259565625,4.66669418359375,2.6666259765625,4.66669418359375L4.1466257765625,4.66669418359375C4.3066255765624994,4.66669418359375,4.4532925765625,4.60669418359375,4.5666258765625,4.49336098359375L7.2066259765625,1.85336089359375C7.4532928765625,1.60669422149375,7.8199596765625,1.53336095859375,8.1399593765625,1.66669428359375C8.4599590765625,1.80002761359375,8.6666259765625,2.11336088359375,8.6666259765625,2.4600276935937497L8.6666259765625,13.54002718359375C8.6666259765625,13.88669418359375,8.4599590765625,14.20002718359375,8.1399593765625,14.33336018359375C8.0332927765625,14.37335918359375,7.9199599765625,14.40002618359375,7.8066262765625,14.40002818359375ZM2.6666259765625,6.00002808359375C2.2999593765624997,6.00002808359375,1.9999592765625,6.30002828359375,1.9999592765625,6.66669468359375L1.9999592765625,9.33336118359375C1.9999592765625,9.70002748359375,2.2999591765625,10.00002858359375,2.6666259765625,10.00002858359375L4.1466257765625,10.00002858359375C4.6599590765625,10.00002858359375,5.1466254765625,10.20002748359375,5.5132922765625,10.56669428359375L7.3332929765625,12.39336218359375L7.3332929765625,3.60669468359375L5.5066261765625,5.43336148359375C5.1399593765625,5.80002828359375,4.6599590765625,6.00002808359375,4.1466257765625,6.00002808359375L2.6666259765625,6.00002808359375Z" fill="#394066" fill-opacity="1" style="mix-blend-mode:passthrough"/></g></svg>