<svg xmlns="http://www.w3.org/2000/svg" xmlns:xlink="http://www.w3.org/1999/xlink" fill="none" version="1.1" width="16" height="16" viewBox="0 0 16 16"><defs><clipPath id="master_svg0_2_4703"><rect x="0" y="0" width="16" height="16" rx="0"/></clipPath></defs><g clip-path="url(#master_svg0_2_4703)"><path d="M15.0000078125,6.50001141875L15.0000078125,3.00001171875L13.8585068125,4.1415117187499995C12.5639598125,2.1801388187499997,10.3710785125,0.99983304739,8.021007512499999,0.99951171875C4.1550081125,0.999511659145355,1.0205078125,4.13351181875,1.0205078125,8.000011418749999C1.0205078125,11.86651171875,4.1550081125,15.00051071875,8.021007512499999,15.00051071875C10.8709364125,15.00107871875,13.4367728125,13.27404171875,14.5090078125,10.63351061875C14.6336848125,10.32657911875,14.4859388125,9.97669031875,14.1790078125,9.85201171875C13.8720758125,9.72733311875,13.5221868125,9.87507821875,13.3975078125,10.18201061875C12.5086538125,12.36987371875,10.3825340125,13.80079871875,8.021007512499999,13.80051071875C4.817508012499999,13.80051171875,2.2205078125,11.20351171875,2.2205078125,8.000011418749999C2.2205078125,4.796511918749999,4.817508012499999,2.19951171875,8.021007512499999,2.19951171875C10.0905075125,2.19951171875,11.9575078125,3.29451181875,12.9900078125,5.00951191875L11.5000078125,6.50001141875L15.0000078125,6.50001141875Z" fill="#394066" fill-opacity="1" style="mix-blend-mode:passthrough"/></g></svg>