<svg xmlns="http://www.w3.org/2000/svg" xmlns:xlink="http://www.w3.org/1999/xlink" fill="none" version="1.1" width="16" height="16" viewBox="0 0 16 16"><g transform="matrix(1,0,0,-1,0,32)"><path d="M0 16C0 16 0 16 0 16L16 16C16 16 16 16 16 16L16 32C16 32 16 32 16 32L0 32C0 32 0 32 0 32Z" fill="#394066" fill-opacity="1" style="opacity:0;"/><g><path d="M8.342672008583069,17.2979999709422C7.282672008583069,16.9919999729422,6.7453281085830685,17.4139999729422,6.436000008583068,18.4019999329422L6.236000208583069,19.1053281329422L6.224000108583069,19.1459999329422C6.1500002085830685,19.3853281329422,6.072000108583069,19.5906719329422,5.976671808583069,19.7866717329422L5.881328208583069,19.9733280329422C5.598959608583069,20.5027004329422,5.215502808583069,20.9715501329422,4.752671808583068,21.3533278329422L4.671328208583069,21.4153281329422L3.487328208583069,21.4160000329422C2.024671908583069,21.4160000329422,1.1660000085830688,22.2233282329422,1.1660000085830688,23.6380001329422L1.1660000085830688,28.0680001329422C1.1660000085830688,29.1880001329422,1.648656248583069,29.9740001329422,2.576000008583069,30.2493281329422L2.7560000085830687,30.2966721329422L2.8673282085830687,30.318672132942197L2.925328108583069,30.3273281329422L3.055328108583069,30.3393281329422L3.2113281085830687,30.3460001329422L3.406671908583069,30.349328132942198L4.087328108583069,30.349328132942198L4.327328108583069,30.3546711329422C4.365786908583068,30.356206132942198,4.404235508583069,30.357982132942197,4.442671908583069,30.360000132942197L10.491327908583068,30.8099991329422C11.73600000858307,30.956672132942202,12.688000008583069,30.4453281329422,13.149328008583069,29.3320001329422L13.244671008583069,29.0940001329422L13.400672008583069,28.6820001329422L13.513328008583068,28.3686711329422L13.695328008583068,27.843328132942197L13.962000008583068,27.0366717329422L14.105328008583069,26.5886718329422L14.256000008583069,26.1093284329422L14.57800000858307,25.0606719329422L14.663328008583068,24.7793280329422L14.699328008583068,24.6253282329422C15.12067200858307,22.7453280329422,14.45467100858307,21.6146718329422,12.778672008583069,21.6146718329422L10.036672208583068,21.6146718329422L10.040671908583068,21.600000032942198C10.167328508583068,21.0766719329422,10.21067200858307,20.6153282329422,10.21067200858307,19.8686717329422C10.21067200858307,19.0326718329422,9.897328008583068,18.3673280329422,9.370671908583068,17.887328092942198C9.035999908583069,17.5833281029422,8.679328108583068,17.4019999629422,8.369328108583069,17.3066718429422L8.342672008583069,17.2979999709422ZM7.821345908583069,18.5279898329422C7.792689408583069,18.5213180329422,7.780017508583069,18.5306462329422,7.766017508583069,18.571318032942198L7.705345708583069,18.804661832942198L7.538689208583069,19.4053179329422L7.498689308583069,19.5386618329422C7.413275808583069,19.8234607329422,7.305837308583069,20.1011840329422,7.177345908583069,20.3693181329422C6.888606708583069,20.9609793329422,6.505363608583069,21.5016242329422,6.042689408583069,21.969989932942198C5.8323985085830685,22.1880308329422,5.603522408583069,22.3872505329422,5.358689408583069,22.5654069329422L5.358689408583069,22.5653182329422L5.272689508583069,22.6266619329422C5.3015691085830685,22.6065303329422,5.330237008583069,22.5861107329422,5.358689408583069,22.5654069329422L5.358689408583069,29.0873341329422L10.619346308583069,29.4833341329422C11.274017008583069,29.5600051329422,11.644689008583068,29.388005132942197,11.872690008583069,28.9193331329422L11.917346008583069,28.822005132942202L12.007346008583069,28.5973341329422L12.156017008583069,28.2040051329422L12.264018008583069,27.9026781329422L12.439346008583069,27.3953331329422L12.56534500858307,27.0193339329422L12.83669000858307,26.1793338329422L13.136690008583068,25.220677532942197L13.37801800858307,24.426005432942198C13.674690008583068,23.2373339329422,13.50001800858307,22.9480053329422,12.77869000858307,22.9480053329422L9.37734570858307,22.9480053329422C9.106339108583068,22.9481622329422,8.85198700858307,22.8172508329422,8.69461880858307,22.5966159329422C8.53725020858307,22.3759805329422,8.496295608583068,22.0928632329422,8.584689708583069,21.836677632942198L8.618689208583069,21.7366773329422L8.670689208583068,21.5660058329422C8.831345708583068,21.0073336329422,8.877345708583068,20.6420055329422,8.877345708583068,19.8686617329422C8.877345708583068,19.1120056329422,8.457345608583068,18.7286617329422,7.986017808583068,18.5833493329422L7.928017308583069,18.5653337329422L7.821345908583069,18.5279898329422ZM4.0253125085830685,22.7486812329422L3.487984308583069,22.7486812329422C2.7439843085830686,22.7486812329422,2.499984408583069,22.9786812329422,2.499984408583069,23.6380092329422L2.499984408583069,28.0680091329422C2.499984408583069,28.6620091329422,2.655312508583069,28.9013381329422,3.0279844085830687,28.9900091329422L3.0513126085830686,28.9953371329422L3.1099844085830686,29.0040091329422L3.1899844085830686,29.0106811329422L3.3706561085830686,29.0146811329422L3.817312408583069,29.0146811329422L4.0253125085830685,29.0160091329422L4.0253125085830685,22.7486812329422Z" fill-rule="evenodd" fill="#394066" fill-opacity="1"/></g></g></svg>