<svg xmlns="http://www.w3.org/2000/svg" xmlns:xlink="http://www.w3.org/1999/xlink" fill="none" version="1.1" width="16" height="16" viewBox="0 0 16 16"><g><path d="M12.666662,11.493758L12.666662,4.4952393C12.666662,3.5327392,11.879162,2.7452392999999997,10.9166622,2.7452392999999997L3.8332722,2.7452392999999997C3.8359373,2.4311604,4.1019883,2.1666621,4.416589699999999,2.1666621L12.583252,2.1666621C12.899414,2.1666621,13.16659,2.4338379000000003,13.16659,2.75L13.16659,10.9166622C13.16659,11.20459,12.945021,11.451872,12.666662,11.493758ZM12.666657,12.664684C13.590831,12.62077,14.333252,11.851208,14.333252,10.9166622L14.333252,2.75C14.333252,1.78750002,13.545752,1,12.583252,1L4.416589699999999,1C3.4550178,1,2.668108,1.78598255,2.6665919000000002,2.7472171999999997C1.74241924,2.7911319,1,3.5606945,1,4.4952393L1,12.661901C1,13.624401,1.78750002,14.411901,2.75,14.411901L10.9166622,14.411901C11.878235,14.411901,12.665145,13.625918,12.666657,12.664684ZM11.500086,4.4952641L11.500086,12.661926C11.500086,12.978088,11.23291,13.245264,10.916748,13.245264L2.7500859,13.245264C2.4338965,13.245264,2.166748,12.978088,2.166748,12.661926L2.166748,4.4952641C2.166748,4.1790748,2.4339101000000003,3.9119263,2.7500859,3.9119263L10.916748,3.9119263C11.23291,3.9119263,11.500086,4.1790883999999995,11.500086,4.4952641ZM6.8333244,5.6619263C6.5124998,5.6619263,6.25,5.9244261,6.25,6.2452641L6.25,7.9952393L4.5000858,7.9952393C4.179248100000001,7.9952393,3.916748,8.2577257,3.916748,8.5785637C3.916748,8.8994012,4.179248100000001,9.1619015,4.5000858,9.1619015L6.25,9.1619015L6.25,10.9119263C6.25,11.232764,6.5124865,11.495264,6.8333244,11.495264C7.1541619,11.495264,7.4166622,11.232764,7.4166622,10.9119263L7.4166622,9.1619015L9.166748,9.1619015C9.487586,9.1619015,9.7500858,8.8993878,9.7500858,8.5785637C9.7500858,8.2577391,9.487586,7.9952393,9.166748,7.9952393L7.4166622,7.9952393L7.4166622,6.2452641C7.4166622,5.9244261,7.1541486,5.6619263,6.8333244,5.6619263Z" fill-rule="evenodd" fill="#394066" fill-opacity="1"/></g></svg>