<svg xmlns="http://www.w3.org/2000/svg" xmlns:xlink="http://www.w3.org/1999/xlink" fill="none" version="1.1" width="26" height="26" viewBox="0 0 26 26"><defs><clipPath id="master_svg0_2_4764"><rect x="0" y="0" width="26" height="26" rx="0"/></clipPath></defs><g clip-path="url(#master_svg0_2_4764)"><path d="M13,1.625C19.282249,1.625,24.375,6.7177496,24.375,13C24.375,19.282249,19.282249,24.375,13,24.375C6.7177496,24.375,1.625,19.282249,1.625,13C1.625,6.7177496,6.7177496,1.625,13,1.625ZM13,3.3515625C7.6713204,3.3515625,3.3515625,7.6713204,3.3515625,13C3.3515625,18.328678,7.6713204,22.648438,13,22.648438C18.328678,22.648438,22.648438,18.328678,22.648438,13C22.648438,7.6713204,18.328678,3.3515625,13,3.3515625ZM14.339761,6.6584373C14.652828,6.3456244,15.159827,6.3456244,15.472817,6.6583104L15.473275,6.6587925L15.575497,6.7637324C18.915506,10.2476044,18.911825,15.752902,15.567448,19.232307L15.464032,19.338186L15.455349,19.347021C15.309608,19.493221,15.110038,19.576174,14.901783,19.576174C14.689313,19.576168,14.485962,19.489849,14.338365,19.337019C14.053786,19.034208,14.053786,18.564028,14.337248,18.262386L14.33971,18.259848L14.424592,18.17342C17.196994,15.304202,17.197249,10.7485399,14.425429,7.878993L14.339711,7.7917004L14.330444,7.7822552C14.027205,7.4685292,14.030302,6.9683585,14.339761,6.6584373ZM11.4113836,8.934529300000001C11.711451,8.6676731,12.164063,8.6676731,12.464156,8.9344535L12.475886,8.9450665L12.478325,8.9476056L12.542562,9.014941199999999C14.641859,11.2506628,14.642062,14.736998,12.543223,16.972974L12.475379,17.044041L12.472231,17.046832000000002L12.463141,17.054855C12.161906,17.316406,11.713863,17.316431,11.4125786,17.054932L11.399045,17.042949L11.3950586,17.038608L11.3868065,17.029465000000002C11.1174126,16.726250999999998,11.1201534,16.267366000000003,11.3950586,15.967324L11.3984098,15.96382L11.4464493,15.914741C13.015717,14.285475,13.015894,11.703807,11.4469318,10.0743389L11.3962021,10.022542L11.3940945,10.0202045L11.3860188,10.0110397C11.1219568,9.7066059,11.1246481,9.2523932,11.3940945,8.9510565L11.3980036,8.9466901L11.4023199,8.9427028L11.4113836,8.934529300000001ZM8.1599369,12.130956C8.506925599999999,11.789198,9.0258589,11.686923,9.4778628,11.873062C9.9344368,12.061054,10.2324219,12.506126,10.2324219,13C10.2324219,13.493898,9.9344368,13.938945,9.4778633,14.126964C9.026268,14.312913,8.507268,14.211152,8.1593285,13.868435L8.1488423,13.857975L8.1380515,13.847133C7.9162579,13.62095,7.7920437,13.316783,7.7921033,13C7.7921042,12.682615,7.916801,12.377936,8.1393199,12.151623L8.149476499999999,12.14139L8.1599369,12.130956Z" fill="#394066" fill-opacity="1" style="mix-blend-mode:passthrough"/></g></svg>