<svg xmlns="http://www.w3.org/2000/svg" xmlns:xlink="http://www.w3.org/1999/xlink" fill="none" version="1.1" width="12" height="12" viewBox="0 0 12 12"><defs><clipPath id="master_svg0_10_1417"><rect x="0" y="0" width="12" height="12" rx="0"/></clipPath></defs><g clip-path="url(#master_svg0_10_1417)"><path d="M11.380959,2.1943362L8.5082912,2.1943362C8.4691114,0.97119141,7.4034209,0,6.0932479,0C4.7830749,0,3.7189491,0.97119141,3.673501,2.1899414L0.61747402,2.1899414C0.27739313,2.1899414,0,2.4477537,0,2.7670896C0,3.0849609,0.2758261,3.3442378,0.61747402,3.3442378L1.2992029,3.3442378L1.2992029,9.7983398C1.2992029,11.009766,2.1783986,12,3.2644632,12L8.7997904,12C9.8842878,12,10.765052,11.015625,10.765052,9.7983398L10.765052,3.3486328L11.382524,3.3486328C11.722607,3.3486328,12,3.0908201,12,2.7714844C11.998431,2.4550784,11.722607,2.1943364,11.380959,2.1943362ZM4.6059804,8.9414062C4.6059804,9.27246,4.3740363,9.5361319,4.0919414,9.5361319C3.8035784,9.5361319,3.5779026,9.2709961,3.5779026,8.9414062L3.5779026,5.5517578C3.5779026,5.2207031,3.8098471,4.9570308,4.0919414,4.9570308C4.3756037,4.9570308,4.6059804,5.2207031,4.6059804,5.5517578L4.6059804,8.9414062ZM6.4678059,8.9414062C6.4678059,9.27246,6.2358618,9.5361319,5.9537678,9.5361319C5.6716723,9.5361319,5.4397278,9.2709961,5.4397278,8.9414062L5.4397278,5.5517578C5.4397278,5.2207031,5.6716723,4.9570308,5.9537678,4.9570308C6.2374287,4.9570308,6.4678059,5.2207031,6.4678059,5.5517578L6.4678059,8.9414062ZM4.8300896,2.1914062C4.8755388,1.565918,5.4209213,1.0810547,6.0948153,1.0810547C6.7702742,1.0810547,7.3156586,1.5673828,7.3548379,2.1914062L4.8300896,2.1914062ZM8.4267979,8.9414062C8.4267979,9.27246,8.1948538,9.5361319,7.9127588,9.5361319C7.622828,9.5361319,7.3987193,9.2709961,7.3987193,8.9414062L7.3987193,5.5517578C7.3987193,5.2207031,7.6306634,4.9570308,7.9127588,4.9570308C8.1964197,4.9570308,8.4267979,5.2207031,8.4267979,5.5517578L8.4267979,8.9414062Z" fill="#FF4033" fill-opacity="1" style="mix-blend-mode:passthrough"/></g></svg>