<svg xmlns="http://www.w3.org/2000/svg" xmlns:xlink="http://www.w3.org/1999/xlink" fill="none" version="1.1" width="18" height="18" viewBox="0 0 18 18"><defs><clipPath id="master_svg0_2_4824"><rect x="4" y="3" width="12" height="12" rx="0"/></clipPath></defs><ellipse cx="9" cy="9" rx="9" ry="9" fill="#E5F3FF" fill-opacity="1"/><g clip-path="url(#master_svg0_2_4824)"><path d="M11.18691400625,9.004663454687499L7.22128891625,12.9702873546875C6.92949211625,13.2620849546875,6.92949211625,13.7390375546875,7.22128891625,14.0308345546875C7.51308572625,14.3226315546875,7.99003898625,14.3226315546875,8.28183580625,14.0308345546875L12.77714820625,9.5355224546875C12.84980490625,9.4628658546875,12.90488290625,9.3784909546875,12.94121070625,9.2882571546875C13.00449280625,9.1300539546875,13.01269530625,8.9542727546875,12.96464820625,8.7913827546875C12.95761730625,8.7679452546875,12.949414206250001,8.745678854687501,12.94121070625,8.722241354687501C12.90488290625,8.6320071546875,12.84980490625,8.5476326546875,12.77714820625,8.474976554687501L8.28183580625,3.9784912446875C7.99003898625,3.6866943536875,7.51308572625,3.6866943536875,7.22128891625,3.9784912446875C6.92949211625,4.2702881146875,6.92949211625,4.7472413146875,7.22128891625,5.0390381546875L11.18691400625,9.004663454687499Z" fill="#394066" fill-opacity="1" style="mix-blend-mode:passthrough"/></g></svg>