<svg xmlns="http://www.w3.org/2000/svg" xmlns:xlink="http://www.w3.org/1999/xlink" fill="none" version="1.1" width="16" height="16" viewBox="0 0 16 16"><defs><clipPath id="master_svg0_10_1400"><rect x="0" y="0" width="16" height="16" rx="0"/></clipPath></defs><g clip-path="url(#master_svg0_10_1400)"><path d="M5.5,8Q5.4999999,8.0984913,5.4807851,8.1950902Q5.4615703,8.291689,5.4238793,8.3826833Q5.3861883,8.4736774,5.3314693,8.5555699Q5.2767504,8.6374626,5.2071065999999995,8.7071066Q5.1374626,8.776750400000001,5.0555699,8.8314693Q4.9736774,8.8861883,4.8826833,8.9238794Q4.791689,8.9615704,4.6950902,8.9807851Q4.5984913,8.9999999,4.5,9Q4.40150857,8.9999999,4.30490965,8.9807851Q4.20831072,8.9615703,4.1173164799999995,8.9238793Q4.02632231,8.8861883,3.94442973,8.8314693Q3.86253715,8.776750400000001,3.7928932,8.7071066Q3.7232492600000002,8.6374626,3.66853037,8.5555699Q3.61381148,8.4736774,3.576120459,8.3826833Q3.538429435,8.291689,3.519214718,8.1950902Q3.5,8.0984913,3.5,8Q3.5,7.90150857,3.519214718,7.80490965Q3.538429435,7.70831072,3.576120459,7.6173164799999995Q3.61381148,7.52632231,3.66853037,7.44442973Q3.7232492600000002,7.36253715,3.7928932,7.2928932Q3.86253715,7.22324926,3.9444297600000002,7.16853037Q4.02632231,7.11381148,4.1173164799999995,7.076120459Q4.20831072,7.038429435,4.30490965,7.019214718Q4.40150857,7,4.5,7Q4.5984913,7,4.6950902,7.019214718Q4.791689,7.038429435,4.8826833,7.076120459Q4.9736774,7.11381148,5.0555699,7.16853037Q5.1374626,7.22324926,5.2071065999999995,7.2928932Q5.2767504,7.36253715,5.3314693,7.44442976Q5.3861883,7.52632231,5.4238794,7.6173164799999995Q5.4615704,7.70831072,5.4807851,7.80490965Q5.4999999,7.90150857,5.5,8Z" fill="#394066" fill-opacity="1" style="mix-blend-mode:passthrough"/><path d="M9,8Q8.9999999,8.0984913,8.9807851,8.1950902Q8.9615703,8.291689,8.9238793,8.3826833Q8.8861883,8.4736774,8.8314693,8.5555699Q8.776750400000001,8.6374626,8.7071066,8.7071066Q8.6374626,8.776750400000001,8.5555699,8.8314693Q8.4736774,8.8861883,8.3826833,8.9238794Q8.291689,8.9615704,8.1950902,8.9807851Q8.0984913,8.9999999,8,9Q7.90150857,8.9999999,7.80490965,8.9807851Q7.70831072,8.9615703,7.6173164799999995,8.9238793Q7.52632231,8.8861883,7.44442973,8.8314693Q7.36253715,8.776750400000001,7.2928932,8.7071066Q7.22324926,8.6374626,7.16853037,8.5555699Q7.11381148,8.4736774,7.076120459,8.3826833Q7.038429435,8.291689,7.019214718,8.1950902Q7,8.0984913,7,8Q7,7.90150857,7.019214718,7.80490965Q7.038429435,7.70831072,7.076120459,7.6173164799999995Q7.11381148,7.52632231,7.16853037,7.44442973Q7.22324926,7.36253715,7.2928932,7.2928932Q7.36253715,7.22324926,7.44442976,7.16853037Q7.52632231,7.11381148,7.6173164799999995,7.076120459Q7.70831072,7.038429435,7.80490965,7.019214718Q7.90150857,7,8,7Q8.0984913,7,8.1950902,7.019214718Q8.291689,7.038429435,8.3826833,7.076120459Q8.4736774,7.11381148,8.5555699,7.16853037Q8.6374626,7.22324926,8.7071066,7.2928932Q8.776750400000001,7.36253715,8.8314693,7.44442976Q8.8861883,7.52632231,8.9238794,7.6173164799999995Q8.9615704,7.70831072,8.9807851,7.80490965Q8.9999999,7.90150857,9,8Z" fill="#394066" fill-opacity="1" style="mix-blend-mode:passthrough"/><path d="M12.5,8Q12.4999999,8.0984913,12.4807851,8.1950902Q12.4615703,8.291689,12.4238793,8.3826833Q12.3861883,8.4736774,12.3314693,8.5555699Q12.276750400000001,8.6374626,12.2071066,8.7071066Q12.1374626,8.776750400000001,12.0555699,8.8314693Q11.9736774,8.8861883,11.8826833,8.9238794Q11.791689,8.9615704,11.6950902,8.9807851Q11.5984913,8.9999999,11.5,9Q11.40150857,8.9999999,11.30490965,8.9807851Q11.20831072,8.9615703,11.11731648,8.9238793Q11.02632231,8.8861883,10.94442973,8.8314693Q10.86253715,8.776750400000001,10.7928932,8.7071066Q10.72324926,8.6374626,10.66853037,8.5555699Q10.61381148,8.4736774,10.576120459,8.3826833Q10.538429435,8.291689,10.519214718,8.1950902Q10.5,8.0984913,10.5,8Q10.5,7.90150857,10.519214718,7.80490965Q10.538429435,7.70831072,10.576120459,7.6173164799999995Q10.61381148,7.52632231,10.66853037,7.44442973Q10.72324926,7.36253715,10.7928932,7.2928932Q10.86253715,7.22324926,10.94442976,7.16853037Q11.02632231,7.11381148,11.11731648,7.076120459Q11.20831072,7.038429435,11.30490965,7.019214718Q11.40150857,7,11.5,7Q11.5984913,7,11.6950902,7.019214718Q11.791689,7.038429435,11.8826833,7.076120459Q11.9736774,7.11381148,12.0555699,7.16853037Q12.1374626,7.22324926,12.2071066,7.2928932Q12.276750400000001,7.36253715,12.3314693,7.44442976Q12.3861883,7.52632231,12.4238794,7.6173164799999995Q12.4615704,7.70831072,12.4807851,7.80490965Q12.4999999,7.90150857,12.5,8Z" fill="#394066" fill-opacity="1" style="mix-blend-mode:passthrough"/></g></svg>