<svg xmlns="http://www.w3.org/2000/svg" xmlns:xlink="http://www.w3.org/1999/xlink" fill="none" version="1.1" width="16" height="16" viewBox="0 0 16 16"><defs><clipPath id="master_svg0_2_4678"><rect x="0" y="0" width="16" height="16" rx="0"/></clipPath></defs><g clip-path="url(#master_svg0_2_4678)"><path d="M8,14.50469970703125C4.4187498000000005,14.50469970703125,1.515625,11.60157470703125,1.515625,8.02032470703125C1.515625,4.4390745070312505,4.4187498000000005,1.53594970703125,8,1.53594970703125C11.58125,1.53594970703125,14.484375,4.4390745070312505,14.484375,8.02032470703125C14.484375,11.60157470703125,11.58125,14.50469970703125,8,14.50469970703125ZM8.006250399999999,13.29376170703125C10.9156256,13.29376170703125,13.275001,10.93438720703125,13.275001,8.02501200703125C13.275001,5.11563680703125,10.9156256,2.75626180703125,8.006250399999999,2.75626180703125C5.0968751999999995,2.75626180703125,2.7375002,5.11563680703125,2.7375002,8.02501200703125C2.7375002,10.93438720703125,5.0953126,13.29376170703125,8.006250399999999,13.29376170703125ZM5.9734373,5.58751250703125L10.0265617,5.58751250703125C10.249999,5.58751250703125,10.4312496,5.76876260703125,10.4312496,5.99219990703125L10.4312496,10.04688740703125C10.4312496,10.27032470703125,10.25,10.45157530703125,10.0265617,10.45157530703125L5.9734373,10.45157530703125C5.75,10.45157530703125,5.5687499,10.27032570703125,5.5687499,10.04688740703125L5.5687499,5.99376250703125C5.5687499,5.76876260703125,5.75,5.58751250703125,5.9734373,5.58751250703125Z" fill="#394066" fill-opacity="1" style="mix-blend-mode:passthrough"/></g></svg>