<svg xmlns="http://www.w3.org/2000/svg" xmlns:xlink="http://www.w3.org/1999/xlink" fill="none" version="1.1" width="16" height="16" viewBox="0 0 16 16"><path d="M0 0C0 0 0 0 0 0L16 0C16 0 16 0 16 0L16 16C16 16 16 16 16 16L0 16C0 16 0 16 0 16Z" fill="#394066" fill-opacity="1" style="opacity:0;"/><g><path d="M8.342672008583069,1.2979999709421997C7.282672008583069,0.9919999729421998,6.7453281085830685,1.4139999729421997,6.436000008583068,2.4019999329422L6.236000208583069,3.1053281329421996L6.224000108583069,3.1459999329421997C6.1500002085830685,3.3853281329422,6.072000108583069,3.5906719329422,5.976671808583069,3.7866717329421995L5.881328208583069,3.9733280329421996C5.598959608583069,4.5027004329422,5.215502808583069,4.9715501329422,4.752671808583068,5.3533278329422L4.671328208583069,5.4153281329422L3.487328208583069,5.4160000329422C2.024671908583069,5.4160000329422,1.1660000085830688,6.223328232942199,1.1660000085830688,7.638000132942199L1.1660000085830688,12.068000132942199C1.1660000085830688,13.1880001329422,1.648656248583069,13.9740001329422,2.576000008583069,14.2493281329422L2.7560000085830687,14.2966721329422L2.8673282085830687,14.318672132942199L2.925328108583069,14.327328132942199L3.055328108583069,14.3393281329422L3.2113281085830687,14.3460001329422L3.406671908583069,14.3493281329422L4.087328108583069,14.3493281329422L4.327328108583069,14.3546711329422C4.365786908583068,14.3562061329422,4.404235508583069,14.3579821329422,4.442671908583069,14.360000132942199L10.491327908583068,14.809999132942199C11.73600000858307,14.9566721329422,12.688000008583069,14.4453281329422,13.149328008583069,13.3320001329422L13.244671008583069,13.094000132942199L13.400672008583069,12.6820001329422L13.513328008583068,12.3686711329422L13.695328008583068,11.843328132942199L13.962000008583068,11.0366717329422L14.105328008583069,10.5886718329422L14.256000008583069,10.109328432942199L14.57800000858307,9.0606719329422L14.663328008583068,8.7793280329422L14.699328008583068,8.625328232942199C15.12067200858307,6.7453280329422,14.45467100858307,5.6146718329422,12.778672008583069,5.6146718329422L10.036672208583068,5.6146718329422L10.040671908583068,5.6000000329422C10.167328508583068,5.076671932942199,10.21067200858307,4.6153282329422,10.21067200858307,3.8686717329422C10.21067200858307,3.0326718329421998,9.897328008583068,2.3673280329421997,9.370671908583068,1.8873280929421998C9.035999908583069,1.5833281029421997,8.679328108583068,1.4019999629421998,8.369328108583069,1.3066718429421997L8.342672008583069,1.2979999709421997ZM7.821345908583069,2.5279898329421995C7.792689408583069,2.5213180329422,7.780017508583069,2.5306462329421997,7.766017508583069,2.5713180329422L7.705345708583069,2.8046618329422L7.538689208583069,3.4053179329421996L7.498689308583069,3.5386618329421995C7.413275808583069,3.8234607329421997,7.305837308583069,4.1011840329422,7.177345908583069,4.369318132942199C6.888606708583069,4.9609793329422,6.505363608583069,5.501624232942199,6.042689408583069,5.9699899329422C5.8323985085830685,6.1880308329422,5.603522408583069,6.3872505329422,5.358689408583069,6.565406932942199L5.358689408583069,6.565318232942199L5.272689508583069,6.626661932942199C5.3015691085830685,6.606530332942199,5.330237008583069,6.5861107329422,5.358689408583069,6.565406932942199L5.358689408583069,13.0873341329422L10.619346308583069,13.4833341329422C11.274017008583069,13.5600051329422,11.644689008583068,13.3880051329422,11.872690008583069,12.9193331329422L11.917346008583069,12.8220051329422L12.007346008583069,12.5973341329422L12.156017008583069,12.2040051329422L12.264018008583069,11.9026781329422L12.439346008583069,11.3953331329422L12.56534500858307,11.0193339329422L12.83669000858307,10.1793338329422L13.136690008583068,9.220677532942199L13.37801800858307,8.4260054329422C13.674690008583068,7.2373339329421995,13.50001800858307,6.948005332942199,12.77869000858307,6.948005332942199L9.37734570858307,6.948005332942199C9.106339108583068,6.9481622329422,8.85198700858307,6.8172508329422,8.69461880858307,6.5966159329422C8.53725020858307,6.3759805329422,8.496295608583068,6.0928632329422,8.584689708583069,5.8366776329422L8.618689208583069,5.736677332942199L8.670689208583068,5.566005832942199C8.831345708583068,5.007333632942199,8.877345708583068,4.6420055329422,8.877345708583068,3.8686617329421997C8.877345708583068,3.1120056329422,8.457345608583068,2.7286617329421996,7.986017808583068,2.5833493329421997L7.928017308583069,2.5653337329421997L7.821345908583069,2.5279898329421995ZM4.0253125085830685,6.7486812329422L3.487984308583069,6.7486812329422C2.7439843085830686,6.7486812329422,2.499984408583069,6.9786812329422,2.499984408583069,7.6380092329422L2.499984408583069,12.0680091329422C2.499984408583069,12.662009132942199,2.655312508583069,12.9013381329422,3.0279844085830687,12.9900091329422L3.0513126085830686,12.9953371329422L3.1099844085830686,13.0040091329422L3.1899844085830686,13.0106811329422L3.3706561085830686,13.014681132942199L3.817312408583069,13.014681132942199L4.0253125085830685,13.0160091329422L4.0253125085830685,6.7486812329422Z" fill-rule="evenodd" fill="#394066" fill-opacity="1"/></g></svg>