<svg xmlns="http://www.w3.org/2000/svg" xmlns:xlink="http://www.w3.org/1999/xlink" fill="none" version="1.1" width="18" height="18" viewBox="0 0 18 18"><defs><clipPath id="master_svg0_2_4826"><rect x="3" y="3" width="12" height="12" rx="0"/></clipPath></defs><ellipse cx="9" cy="9" rx="9" ry="9" fill="#E5F3FF" fill-opacity="1"/><g clip-path="url(#master_svg0_2_4826)"><path d="M7.812952128125,9.004663454687499L11.778576828125,5.0390381546875C12.070373528125,4.7472413146875,12.070373528125,4.2702881146875,11.778576828125,3.9784912446875C11.486779728125,3.6866943536875,11.009827128125,3.6866943536875,10.718029928125,3.9784912446875L6.221545698125,8.4749755546875C6.148889308125,8.5476322546875,6.093811393125,8.6320071546875,6.057483196125,8.722241354687501C5.994202017825,8.8804445546875,5.985998750125,9.0562257546875,6.034045696125,9.2191162546875C6.041077018125,9.2425537546875,6.049279928125,9.2648196546875,6.057483196125,9.2882571546875C6.093811393125,9.378491354687501,6.148889308125,9.4628667546875,6.221545698125,9.5355224546875L10.716858428125,14.0308355546875C11.008655528125,14.3226325546875,11.485608128125001,14.3226325546875,11.777405228125,14.0308355546875C12.069201928125,13.7390384546875,12.069201928125,13.2620859546875,11.777405228125,12.9702882546875L7.812952128125,9.004663454687499Z" fill="#394066" fill-opacity="1" style="mix-blend-mode:passthrough"/></g></svg>