<svg xmlns="http://www.w3.org/2000/svg" xmlns:xlink="http://www.w3.org/1999/xlink" fill="none" version="1.1" width="12" height="12" viewBox="0 0 12 12"><defs><clipPath id="master_svg0_10_2342"><rect x="0" y="0" width="12" height="12" rx="0"/></clipPath></defs><g clip-path="url(#master_svg0_10_2342)"><path d="M2.512451171875,1C1.960166361875,0.999999910593033,1.512451171875,1.44771513,1.512451171875,2L1.512451171875,10.000001C1.512451171875,10.5522852,1.960166361875,11,2.512451171875,11L4.512450971874999,11L4.512450971874999,10.0500011L9.512450171874999,5.0500002L9.512450171874999,4L6.512450171875,1.000000089406967L2.512451171875,1ZM6.012450171875,1.7500001200000002L8.762450171874999,4.5L6.012450171875,4.5L6.012450171875,1.7500001200000002ZM9.562449471875,6.5C9.487261771875,6.5125208,9.417577771875,6.5473623,9.362449671875,6.5999999L8.862449171875,7.1000004L9.912448871875,8.1500006L10.412448871875,7.6500001C10.512449271875,7.5349998,10.512449271875,7.3649998,10.412448871875,7.25L9.762449271875,6.5999994C9.714253471875,6.5382361,9.640777571875,6.5014987,9.562449471875,6.5ZM8.562449471875,7.3999996L5.512449971875,10.4499998L5.512449971875,11.5L6.562449471875,11.5L9.612449671875,8.4499998L8.562449471875,7.3999996Z" fill="#394066" fill-opacity="1" style="mix-blend-mode:passthrough"/></g></svg>