<svg xmlns="http://www.w3.org/2000/svg" xmlns:xlink="http://www.w3.org/1999/xlink" fill="none" version="1.1" width="367" height="108" viewBox="0 0 367 108"><defs><filter id="master_svg0_20_434" filterUnits="objectBoundingBox" color-interpolation-filters="sRGB" x="-0.022792022792022793" y="-0.07608695652173914" width="1.0455840455840455" height="1.173913043478261"><feFlood flood-opacity="0" result="BackgroundImageFix"/><feColorMatrix in="SourceAlpha" type="matrix" values="0 0 0 0 0 0 0 0 0 0 0 0 0 0 0 0 0 0 127 0"/><feOffset dy="1" dx="0"/><feGaussianBlur stdDeviation="2"/><feColorMatrix type="matrix" values="0 0 0 0 0.3686274588108063 0 0 0 0 0.49803921580314636 0 0 0 0 1 0 0 0 0.10000000149011612 0"/><feBlend mode="normal" in2="BackgroundImageFix" result="effect1_dropShadow"/><feBlend mode="normal" in="SourceGraphic" in2="effect1_dropShadow" result="shape"/></filter><linearGradient x1="0.2621082663536072" y1="0" x2="0.6222457128441882" y2="0.3964590335559731" id="master_svg1_10_1035"><stop offset="0%" stop-color="#CBDEFF" stop-opacity="1"/><stop offset="100%" stop-color="#EAF9FF" stop-opacity="1"/></linearGradient><linearGradient x1="0.5" y1="0" x2="0.5" y2="1" id="master_svg2_10_1051"><stop offset="0%" stop-color="#FFFFFF" stop-opacity="1"/><stop offset="100%" stop-color="#F7FEFF" stop-opacity="0"/></linearGradient></defs><g filter="url(#master_svg0_20_434)"><path d="M8,91.000008C8,95.418289,11.5817223,99.000008,16.0000038,99.000008L351,99.000008C355.41827,99.000008,359,95.418289,359,91.000008L359,15.000001C359,10.5817223,355.41827,7,351,7L97.401855,7C91.73526,7,86.334641,9.4037747,82.541992,13.6140141L81.708008,14.5398326C77.915359,18.750072,72.51474,21.153847,66.848145,21.153847L16.000000999999997,21.153847C11.5817223,21.153847,8,24.735569,8,29.153847L8,91.000008Z" fill="url(#master_svg1_10_1035)" fill-opacity="1"/><path d="M8,91.000008C8,95.418289,11.5817223,99.000008,16.0000038,99.000008L351,99.000008C355.41827,99.000008,359,95.418289,359,91.000008L359,15.000001C359,10.5817223,355.41827,7,351,7L97.401855,7C91.73526,7,86.334641,9.4037747,82.541992,13.6140141L81.708008,14.5398326C77.915359,18.750072,72.51474,21.153847,66.848145,21.153847L16.000000999999997,21.153847C11.5817223,21.153847,8,24.735569,8,29.153847L8,91.000008ZM9,91.000015Q9,93.899521,11.0502529,95.949768Q13.1004972,98.000015,16.0000038,98.000015L351,98.000015Q353.89951,98.000015,355.94977,95.949768Q358,93.899521,358,91.000015L358,15.0000019Q358,12.1005077,355.94977,10.0502524Q353.89951,8.0000002,351,8L97.401855,8Q88.945091,8,83.284973,14.2833147L82.451004,15.2091293Q79.464294,18.524695,75.387436,20.339272Q71.310589,22.153847,66.848145,22.153847L16.0000019,22.153847Q13.1005058,22.153847,11.0502529,24.2041Q9,26.254353,9,29.153847L9,91.000015Z" fill-rule="evenodd" fill="url(#master_svg2_10_1051)" fill-opacity="1"/></g></svg>